<svg width="32" height="32" viewBox="0 0 32 32" fill="none" xmlns="http://www.w3.org/2000/svg">
<path d="M24.4788 24.8111C24.7455 24.7577 24.9589 24.7044 25.2256 24.5977C25.4923 24.491 25.7056 24.4377 25.919 24.331C26.3991 24.1177 26.8258 23.851 27.2525 23.5309C28.1059 22.9442 28.7994 22.1441 29.3328 21.184C29.8662 20.2772 30.1862 19.2104 30.2395 18.1969C30.2929 17.6635 30.2395 17.1835 30.1862 16.6501C30.1329 16.3834 30.0795 16.17 30.0262 15.9033C29.9728 15.6366 29.8662 15.4232 29.8128 15.1565L29.7595 15.9033C29.7595 16.17 29.7061 16.3834 29.6528 16.6501C29.5995 17.1301 29.4928 17.6102 29.3861 18.0369C29.1727 18.9437 28.8527 19.7971 28.3726 20.5972C27.8926 21.3973 27.3592 22.1441 26.6658 22.8375C26.3457 23.1575 25.9723 23.4776 25.599 23.7976C25.4389 23.9576 25.2256 24.1177 25.0122 24.2777L24.4788 24.8111ZM24.6388 26.7313C24.7989 26.838 25.0122 26.8913 25.2256 26.9447C25.4389 26.998 25.599 27.0514 25.8123 27.0514C26.1857 27.1047 26.6124 27.158 27.0391 27.1047C27.8392 27.0514 28.6927 26.838 29.3861 26.4646C30.1329 26.0912 30.7729 25.5045 31.1997 24.8111C31.413 24.491 31.6264 24.1177 31.7864 23.7443C31.8397 23.5843 31.8931 23.3709 31.9464 23.1575C31.9464 22.9975 31.9998 22.8375 31.9998 22.6241C31.8397 22.7842 31.7331 22.9442 31.6264 23.0509C31.4664 23.2109 31.3597 23.3709 31.253 23.4776C30.9863 23.7443 30.7729 24.011 30.5062 24.2243C29.9728 24.7044 29.4394 25.1311 28.7994 25.4512C28.2126 25.7712 27.5192 26.0379 26.8791 26.2513C26.5591 26.3579 26.1857 26.4113 25.8123 26.518C25.6523 26.5713 25.4389 26.5713 25.2789 26.6246C25.0122 26.678 24.8522 26.678 24.6388 26.7313ZM12.584 0.808087C12.3173 0.861427 12.1039 0.968106 11.8372 1.07479C11.5705 1.18147 11.3572 1.28815 11.1438 1.39483C10.6638 1.66153 10.237 1.92823 9.81033 2.24827C8.95689 2.88835 8.26347 3.74179 7.78341 4.70191C7.30335 5.66202 7.03665 6.72882 7.03665 7.74228C7.03665 8.27568 7.08999 8.75574 7.19667 9.28914C7.25001 9.55584 7.30335 9.7692 7.41003 10.0359C7.51671 10.3026 7.57005 10.516 7.67673 10.7293L7.73007 9.98256C7.73007 9.71586 7.73007 9.5025 7.78341 9.2358L7.94343 7.79562C8.10345 6.88884 8.42348 5.98206 8.85021 5.12862C9.27693 4.27519 9.81033 3.52843 10.4504 2.83501C10.7704 2.46163 11.1438 2.14159 11.4639 1.76821C11.6239 1.60819 11.8372 1.44817 12.0506 1.28815L12.584 0.808087ZM7.94343 0.594727C7.73007 0.648067 7.57005 0.701407 7.41003 0.808087C7.25001 0.861427 7.03665 0.968106 6.87663 1.07479C6.55659 1.28815 6.23655 1.50151 5.91651 1.76821C5.32977 2.30161 4.84971 2.94169 4.58301 3.68845C4.26297 4.43521 4.15629 5.23531 4.26297 6.03541C4.31631 6.40878 4.42299 6.78216 4.52967 7.15554C4.58301 7.31556 4.68969 7.52892 4.74303 7.68894C4.84971 7.84896 4.90305 8.00898 5.06307 8.169V7.6356V7.1022C5.06307 6.72883 5.11641 6.40878 5.11641 6.08874C5.22309 5.39532 5.32977 4.75525 5.59647 4.16851C5.86317 3.52843 6.18321 2.99503 6.55659 2.40829C6.76995 2.14159 6.98331 1.82155 7.19667 1.55485C7.30335 1.39483 7.41003 1.28815 7.57005 1.12813C7.67673 0.861426 7.83675 0.701407 7.94343 0.594727Z" fill="#42ADE2"/>
<path d="M27.7326 8.54247C28.7994 9.02253 29.1728 10.3027 28.6927 11.3695L21.9719 25.3979L18.2381 23.6377L24.9589 9.55593C25.439 8.48913 26.6658 8.00907 27.7326 8.54247ZM10.077 19.6905L6.12988 17.8236L13.8108 1.82163C14.3442 0.754829 15.6244 0.274769 16.7445 0.808169C17.8113 1.34157 18.2914 2.62173 17.758 3.74187L10.077 19.6905Z" fill="#FFDD67"/>
<path d="M16.6912 0.754771C16.7979 0.808111 16.9046 0.861451 17.0112 0.968131C15.9978 0.701431 14.931 1.18149 14.4509 2.14161L6.76996 18.1436L6.07654 17.8236L13.7575 1.82157C14.2909 0.701431 15.5711 0.221372 16.6912 0.754771Z" fill="#EBA352"/>
<path d="M18.238 23.5842L14.1308 21.6106L21.9718 5.28859C22.5052 4.16845 23.892 3.63505 25.0122 4.16845C26.1323 4.70185 26.6124 6.08869 26.079 7.20882L18.238 23.5842Z" fill="#FFDD67"/>
<path d="M25.0122 4.22191C25.1189 4.27525 25.2256 4.32859 25.3323 4.43527C24.3188 4.16857 23.1453 4.64863 22.6653 5.66209L17.8113 15.85L16.6379 16.5434L21.9719 5.34205C22.5053 4.16857 23.8388 3.68851 25.0122 4.22191Z" fill="#EBA352"/>
<path d="M14.771 20.3306L10.6638 18.357L18.5048 2.03497C19.0382 0.914826 20.425 0.381426 21.5451 0.968166C22.6653 1.50157 23.1453 2.88841 22.6119 4.00854L14.771 20.3306Z" fill="#FFDD67"/>
<path d="M21.5453 0.91478C21.6519 0.96812 21.7586 1.0748 21.8653 1.12814C20.8518 0.86144 19.6784 1.3415 19.1983 2.35496L13.7043 13.8764L12.5308 14.5698L18.5049 2.03492C19.0383 0.86144 20.4251 0.38138 21.5453 0.91478ZM27.7327 8.5424C27.8394 8.59574 27.9461 8.64908 28.0527 8.75576C27.0926 8.48906 26.0792 8.96912 25.6524 9.92924L21.6519 18.3036L20.4785 18.997L24.959 9.6092C25.4391 8.48906 26.6659 8.009 27.7327 8.5424Z" fill="#EBA352"/>
<path d="M0.635956 6.94233C2.07614 5.82219 4.42309 7.04901 5.59657 10.8895C6.39667 13.5565 6.50335 14.3566 8.21023 15.1567L9.17035 13.1831C9.17035 13.1831 24.3189 20.4907 23.7322 21.6642C23.7322 21.6642 21.9186 27.3182 18.8249 29.9319C14.2376 33.879 3.51632 29.6652 3.03625 19.4772C2.76956 13.5565 -0.910904 8.16915 0.635956 6.94233Z" fill="#FFDD67"/>
<path d="M0.636013 6.94174C0.902714 6.72838 1.22275 6.6217 1.54279 6.56836C1.48945 6.6217 1.38277 6.6217 1.32943 6.67504C-0.270767 7.90186 1.38277 10.7289 2.28955 13.2892C3.03631 15.3161 3.67639 17.3964 3.56971 19.4233C3.14299 28.2777 12.0508 32.4916 17.3848 30.8914C12.1574 33.0783 2.44957 28.9178 2.87629 19.69C2.98297 17.6631 2.39623 15.6895 1.59613 13.5559C0.742693 10.9956 -0.910847 8.16856 0.636013 6.94174Z" fill="#EBA352"/>
<path d="M7.73014 14.9426C11.0372 15.316 15.8912 20.0633 12.4774 25.2372C14.9844 20.0099 10.8772 16.4895 8.26354 15.2627C7.99684 15.0493 7.73014 14.9426 7.73014 14.9426Z" fill="#EBA352"/>
</svg>
